<?xml version="1.0" standalone="no"?>
<!DOCTYPE svg PUBLIC "-//W3C//DTD SVG 20010904//EN"
 "http://www.w3.org/TR/2001/REC-SVG-20010904/DTD/svg10.dtd">
<svg version="1.0" xmlns="http://www.w3.org/2000/svg"
 width="16.000000pt" height="16.000000pt" viewBox="0 0 16.000000 16.000000"
 preserveAspectRatio="xMidYMid meet">

<g transform="translate(0.000000,16.000000) scale(0.100000,-0.100000)"
fill="#3C1B43" stroke="none">
<path d="M25 135 c-50 -49 -15 -135 55 -135 41 0 80 39 80 80 0 41 -39 80 -80
80 -19 0 -40 -9 -55 -25z m52 -25 c-7 -27 7 -25 26 3 8 12 18 19 22 15 4 -4 0
-19 -9 -32 -20 -32 -21 -50 0 -42 10 4 14 1 12 -6 -8 -23 -42 -14 -49 12 l-6
25 -8 -27 c-8 -29 -25 -38 -25 -14 0 8 5 27 10 41 9 23 8 26 -5 21 -8 -3 -15
-1 -15 3 0 10 17 19 39 20 9 1 11 -6 8 -19z"/>
</g>
</svg>
